HIERARCHY
ROOT Hips
{
  OFFSET 3.09264 85.2347 -7.68631
  CHANNELS 6 Xposition Yposition Zposition Zrotation Xrotation Yrotation
  JOINT Spine
  {
    OFFSET -0.000355721 21.3001 -0.016921
    CHANNELS 3 Zrotation Xrotation Yrotation
    JOINT LeftArm
    {
      OFFSET 13.5181 21.3012 0
      CHANNELS 3 Zrotation Xrotation Yrotation
      JOINT LeftForeArm
      {
        OFFSET 24.5783 0 0
        CHANNELS 3 Zrotation Xrotation Yrotation
        JOINT LeftHand
        {
          OFFSET 24.5783 0 0
          CHANNELS 3 Zrotation Xrotation Yrotation
          End Site
          {
            OFFSET 7.32568 1.52588e-05 0.0169305
          }
        }
      }
    }
    JOINT Head
    {
      OFFSET 0 27.4458 -0.00489235
      CHANNELS 3 Zrotation Xrotation Yrotation
      End Site
      {
        OFFSET 0 0 0
      }
    }
    JOINT RightArm
    {
      OFFSET -13.5174 21.3012 0
      CHANNELS 3 Zrotation Xrotation Yrotation
      JOINT RightForeArm
      {
        OFFSET -24.5783 0 0
        CHANNELS 3 Zrotation Xrotation Yrotation
        JOINT RightHand
        {
          OFFSET -24.5783 0 0
          CHANNELS 3 Zrotation Xrotation Yrotation
          End Site
          {
            OFFSET -7.32568 1.52588e-05 0.0169305
          }
        }
      }
    }
  }
  JOINT RightUpLeg
  {
    OFFSET -8.44614 -9.41038 0.835684
    CHANNELS 3 Zrotation Xrotation Yrotation
    JOINT RightLeg
    {
      OFFSET 0 -40.9639 0
      CHANNELS 3 Zrotation Xrotation Yrotation
      JOINT RightFoot
      {
        OFFSET 0 -40.9639 0
        CHANNELS 3 Zrotation Xrotation Yrotation
        End Site
        {
          OFFSET 0.50614 -9.67405 14.6709
        }
      }
    }
  }
  JOINT LeftUpLeg
  {
    OFFSET 8.44614 -9.41038 0.835684
    CHANNELS 3 Zrotation Xrotation Yrotation
    JOINT LeftLeg
    {
      OFFSET 0 -40.9639 0
      CHANNELS 3 Zrotation Xrotation Yrotation
      JOINT LeftFoot
      {
        OFFSET 0 -40.9639 0
        CHANNELS 3 Zrotation Xrotation Yrotation
        End Site
        {
          OFFSET -0.50614 -9.67405 14.6709
        }
      }
    }
  }
}
MOTION
Frames:	19
Frame Time:	0.0333333
6.35693 86.9347 -8.20997 -6.37758 -0.551162 -50.2024 4.27843 21.2561 -1.50479 -75.1597 -4.87191 -3.66761 -0.00952165 -1.11037e-05 -92.9795 -19.5382 -0.481626 -19.7831 6.41077 13.7106 22.4962 59.8221 31.08 34.4406 0.00140381 4.19313e-15 126.698 6.28693 -59.7296 11.2925 -10.7437 -6.9982 -14.4855 7.03722 43.2767 -14.6612 1.68714 -54.8452 -11.5371 23.4407 -23.1616 23.6139 3.81864 27.8531 8.52661 -10.3259 -22.7088 6.43726 
6.12241 86.9552 -8.22573 -6.38027 -0.825627 -50.0922 4.4434 21.0026 -1.7092 -75.1372 -4.86924 -3.89512 -0.00952164 -1.07353e-05 -92.8805 -19.466 -0.503293 -19.5955 6.45801 13.4891 22.1176 59.8321 30.5934 34.5076 0.00140381 4.16656e-15 126.428 6.45531 -59.4467 11.5112 -10.7966 -6.69008 -14.461 6.93305 43.3243 -14.5928 1.50631 -54.8902 -11.8138 23.243 -22.7817 23.5523 3.75372 27.6251 8.57682 -10.4028 -22.6527 6.30473 
5.89511 86.9712 -8.2164 -6.38499 -1.09621 -50.0013 4.60801 20.7545 -1.88915 -75.0872 -4.77885 -4.07958 -0.00952162 -1.03924e-05 -92.7884 -19.4022 -0.612871 -19.486 6.62608 13.2714 21.6251 59.9014 30.1028 34.5604 0.00140381 4.14004e-15 126.159 6.5656 -59.0498 11.6433 -10.8473 -6.40455 -14.4217 6.77966 43.4158 -14.4997 1.3208 -54.9252 -12.0698 23.0822 -22.4372 23.5263 3.67151 27.5119 8.62189 -10.4842 -22.6239 6.14589 
5.67029 86.9836 -8.17335 -6.3648 -1.36563 -49.927 4.75377 20.5197 -2.07195 -75.0121 -4.51699 -4.22068 -0.00952161 -1.0243e-05 -92.7483 -19.112 -0.676806 -19.5996 6.78037 13.0591 21.076 59.9375 29.662 34.6338 0.00140381 -4.11771e-15 125.933 6.34251 -58.5989 11.5522 -10.9718 -6.1196 -14.4301 6.67324 43.5063 -14.4396 1.23713 -54.987 -12.2417 22.9232 -22.1363 23.5111 3.56969 27.4992 8.66897 -10.5588 -22.6592 6.01068 
5.45341 87.0027 -8.08426 -6.37037 -1.64721 -49.8632 4.91617 20.3282 -2.26534 -74.9496 -4.1735 -4.31495 -0.00952161 -1.01346e-05 -92.7192 -18.8727 -0.596743 -19.7539 6.91434 12.8874 20.522 59.9095 29.3087 34.7387 0.00140381 4.0964e-15 125.719 5.99003 -58.1366 11.6412 -11.127 -5.73043 -14.4696 6.56689 43.4937 -14.3713 1.29952 -55.0468 -12.2499 22.7729 -21.8154 23.5168 3.4503 27.5626 8.71917 -10.634 -22.7584 5.84958 
5.24579 87.0235 -7.97923 -6.37276 -1.86922 -49.818 5.06436 20.1394 -2.4153 -74.8318 -3.8593 -4.43096 -0.0095216 -9.90122e-06 -92.6566 -18.8919 -0.437213 -19.7421 7.10941 12.717 19.9674 59.9196 28.9956 34.9236 0.00140381 4.07043e-15 125.458 5.54933 -57.578 11.5942 -11.1726 -5.39185 -14.4151 6.35898 43.448 -14.2331 1.25444 -55.1096 -12.4053 22.6949 -21.5432 23.5726 3.31572 27.6731 8.77285 -10.7097 -22.8738 5.65954 
5.04831 87.0418 -7.87301 -6.3087 -2.01979 -49.7684 5.20987 19.9308 -2.5302 -74.6944 -3.54059 -4.59127 -0.00952158 -9.60535e-06 -92.5771 -18.8947 -0.349466 -19.7354 7.22176 12.4311 19.4639 59.9784 28.7001 35.1799 0.00140381 4.0431e-15 125.184 5.30995 -57.0426 11.4491 -11.2086 -5.17222 -14.348 6.17998 43.408 -14.1124 1.16618 -55.1648 -12.6699 22.6211 -21.391 23.6116 3.20016 27.7943 8.81736 -10.7628 -22.9847 5.54396 
4.86697 87.0563 -7.76097 -6.23755 -2.16292 -49.7111 5.35916 19.7756 -2.62891 -74.5865 -3.32753 -4.74854 -0.00952158 -9.55764e-06 -92.5643 -19.036 -0.17775 -19.6512 7.23025 12.1124 19.0435 60.0767 28.4775 35.4655 0.00140381 4.01247e-15 124.879 5.33664 -56.677 11.573 -11.2928 -4.94783 -14.3321 6.05521 43.3538 -14.0266 1.1705 -55.2305 -12.7896 22.5174 -21.2821 23.6062 3.12483 27.9419 8.84297 -10.8079 -23.0968 5.4641 
4.69423 87.0697 -7.65261 -6.17048 -2.28849 -49.6383 5.45743 19.6647 -2.69839 -74.5041 -3.28762 -4.92436 -0.00952158 -9.53823e-06 -92.5591 -19.113 -0.0413992 -19.5506 7.25746 11.862 18.6846 60.1888 28.4281 35.7466 0.00140381 3.98354e-15 124.592 5.27083 -56.2462 11.6777 -11.3401 -4.7363 -14.2927 5.91143 43.2937 -13.927 1.08107 -55.3101 -12.9725 22.4102 -21.1933 23.5695 3.07361 28.0769 8.85936 -10.8649 -23.202 5.37355 
4.52982 87.0943 -7.54539 -6.09769 -2.37845 -49.5737 5.52166 19.587 -2.73447 -74.4774 -3.27651 -5.07513 -0.00952157 -9.39225e-06 -92.5199 -19.0051 -0.147902 -19.5687 7.28526 11.7086 18.4442 60.2755 28.5183 36.0066 0.00140381 3.95648e-15 124.324 5.13194 -55.6669 11.6972 -11.3719 -4.54093 -14.2556 5.80485 43.1855 -13.847 0.995513 -55.3385 -13.195 22.3003 -21.097 23.519 3.03822 28.1307 8.87307 -10.9287 -23.3042 5.3102 
4.38725 87.1232 -7.43742 -6.02167 -2.45039 -49.5217 5.54639 19.5748 -2.76111 -74.4686 -3.30668 -5.13186 -0.00952159 -9.70575e-06 -92.6041 -18.9287 -0.372077 -19.588 7.3053 11.6721 18.3217 60.3221 28.6781 36.2047 0.00140381 3.93176e-15 124.079 5.01288 -55.078 11.7295 -11.4299 -4.36511 -14.2606 5.72248 43.0704 -13.7869 1.0226 -55.3262 -13.2702 22.1701 -21.0114 23.441 3.03196 28.1517 8.87329 -10.9895 -23.406 5.28077 
4.25998 87.1484 -7.33874 -5.92365 -2.46326 -49.4495 5.51656 19.6002 -2.78364 -74.4148 -3.34673 -5.14385 -0.00952162 -1.04995e-05 -92.8172 -18.8963 -0.472705 -19.5168 7.35859 11.7094 18.2129 60.3497 28.8969 36.3537 0.00140381 -3.90981e-15 123.863 4.76801 -54.5317 11.7447 -11.4364 -4.27904 -14.2429 5.6254 42.9865 -13.7211 0.946779 -55.3097 -13.4274 22.0742 -21.0149 23.3674 3.03253 28.1869 8.87158 -11.033 -23.4842 5.26902 
4.13893 87.176 -7.2426 -5.80551 -2.40263 -49.3664 5.49369 19.6478 -2.81459 -74.3643 -3.27237 -5.20689 -0.00952165 -1.09464e-05 -92.9372 -18.8136 -0.391988 -19.4675 7.36497 11.8305 18.0875 60.3736 29.1478 36.4978 0.00140381 -3.88331e-15 123.603 4.58336 -53.9543 11.8324 -11.4058 -4.25863 -14.217 5.58822 42.8844 -13.6901 0.826424 -55.2591 -13.6757 22.0409 -21.0978 23.3341 3.02615 28.2327 8.87222 -11.0628 -23.5417 5.26429 
4.03799 87.2043 -7.14333 -5.72546 -2.32053 -49.3279 5.4648 19.7648 -2.83449 -74.3349 -3.22531 -5.2393 -0.00952166 -1.12655e-05 -93.0229 -18.7911 -0.284788 -19.44 7.29591 12.1347 18.0343 60.3723 29.4402 36.5964 0.00140381 3.84644e-15 123.242 4.646 -53.2343 12.106 -11.3726 -4.23026 -14.2124 5.57568 42.7741 -13.6762 0.84044 -55.1679 -13.7411 22.0554 -21.1684 23.3305 3.03426 28.3044 8.86429 -11.0977 -23.6087 5.25281 
3.95353 87.229 -7.04285 -5.65468 -2.16692 -49.3581 5.37852 19.9226 -2.80355 -74.3285 -3.35693 -5.25741 -0.00952168 -1.15812e-05 -93.1077 -18.9082 -0.185617 -19.3986 7.19729 12.4934 18.0917 60.3414 29.8754 36.6487 0.00140381 3.80226e-15 122.812 4.54342 -52.4565 12.2921 -11.27 -4.29169 -14.1658 5.52663 42.6951 -13.6423 0.839986 -55.0508 -13.7818 22.1575 -21.2893 23.3724 3.06164 28.4327 8.84369 -11.133 -23.6934 5.27393 
3.87844 87.2507 -6.93226 -5.55323 -1.94786 -49.4088 5.23573 20.0982 -2.74204 -74.3966 -3.51195 -5.35774 -0.00952168 -1.15075e-05 -93.0879 -19.0244 -0.048517 -19.414 7.04079 12.8413 18.1785 60.2864 30.3934 36.652 0.00140381 3.7596e-15 122.399 4.21764 -51.6761 12.323 -11.1783 -4.43392 -14.1467 5.53526 42.6294 -13.6458 0.888711 -54.9025 -13.7908 22.2998 -21.5002 23.4282 3.09939 28.614 8.81552 -11.1526 -23.802 5.357 
3.81795 87.2696 -6.80935 -5.45809 -1.70751 -49.4603 5.08977 20.2884 -2.67386 -74.517 -3.60304 -5.4265 -0.00952168 -1.15755e-05 -93.1062 -19.0517 -0.0305002 -19.4739 6.77983 13.2402 18.289 60.2061 30.9378 36.5656 0.00140381 3.72187e-15 122.034 3.93854 -50.6604 12.4148 -11.1179 -4.56481 -14.1759 5.59989 42.5422 -13.6853 1.05 -54.7511 -13.6356 22.4658 -21.7513 23.4953 3.14518 28.8525 8.77877 -11.1632 -23.9198 5.42967 
3.76794 87.2799 -6.68165 -5.36035 -1.43168 -49.5154 4.93806 20.4686 -2.59943 -74.6597 -3.72272 -5.47506 -0.00952169 -1.16956e-05 -93.1385 -19.0577 -0.141668 -19.5644 6.40431 13.6204 18.5717 60.0331 31.6353 36.4582 0.00140381 3.68143e-15 121.646 3.69799 -49.417 12.47 -11.014 -4.72952 -14.1628 5.65925 42.4455 -13.7188 1.05334 -54.6473 -13.6382 22.6581 -22.0792 23.5545 3.22296 29.1722 8.72337 -11.1161 -24.0521 5.52456 
3.72295 87.287 -6.5611 -5.24733 -1.15466 -49.5766 4.74887 20.6405 -2.4978 -74.8109 -3.78833 -5.59449 -0.00952167 -1.14294e-05 -93.0669 -19.0794 -0.0211638 -19.6408 5.90643 13.9762 19.0617 59.8161 32.4171 36.3639 0.00140381 -3.62308e-15 121.088 3.50221 -48.307 12.4908 -10.9121 -4.92238 -14.1398 5.72302 42.3527 -13.7501 0.989577 -54.56 -13.7699 22.8332 -22.4321 23.5925 3.316 29.4957 8.66095 -11.0521 -24.1695 5.68287 
